Coordinates
version=1
nRows=14
nColumns=36
inDegrees=yes

Units are S.I. units (second, meters, Newtons, ...)
If the header above contains a line with 'inDegrees', this indicates whether rotational values are in degrees (yes) or radians (no).

endheader
time	pelvis_tilt	pelvis_list	pelvis_rotation	pelvis_tx	pelvis_ty	pelvis_tz	hip_flexion_r	hip_adduction_r	hip_rotation_r	knee_angle_r	knee_angle_r_beta	ankle_angle_r	subtalar_angle_r	mtp_angle_r	hip_flexion_l	hip_adduction_l	hip_rotation_l	knee_angle_l	knee_angle_l_beta	ankle_angle_l	subtalar_angle_l	mtp_angle_l	lumbar_extension	lumbar_bending	lumbar_rotation	arm_flex_r	arm_add_r	arm_rot_r	elbow_flex_r	pro_sup_r	arm_flex_l	arm_add_l	arm_rot_l	elbow_flex_l	pro_sup_l
      1.41666670	    -17.08939310	     -0.03153266	     -1.19747231	     -0.53629909	      1.32081588	     -0.04623221	     17.11746838	     -8.64823972	     -7.96679709	     38.12912789	      0.66547882	    -25.60888964	     -2.26024351	     -7.49999987	     14.99061929	     -7.76104522	     -6.94931144	     37.03226540	      0.64633496	    -23.70621618	     -4.00285597	     -7.49999987	     -3.15224514	      0.49146021	      1.88428426	    126.14477068	     -7.03226988	     23.42058209	     96.33474328	     96.69897547	    124.93398115	     -7.04171788	     28.21009109	    101.79121749	     92.58422346
      1.42083330	    -17.14007318	      0.28847906	     -1.44979109	     -0.53179172	      1.32415870	     -0.04400857	     17.30842143	     -9.14058494	     -8.10486299	     38.00158084	      0.66325271	    -26.20428789	     -3.78339001	     -7.49999987	     15.56527533	     -7.62956853	     -6.50132484	     37.51768614	      0.65480715	    -24.27072543	     -4.38591418	     -7.49999987	     -2.91142247	      0.25771778	      2.22719981	    126.33621249	     -7.44621289	     24.01455765	     96.78675673	     96.75476430	    125.13385889	     -7.45711104	     28.36303578	    102.40562452	     92.68594239
      1.42500000	    -17.22324048	      0.65724833	     -1.30928669	     -0.52673877	      1.33124362	     -0.04268479	     17.51445544	     -9.47269227	     -7.94009936	     37.62211991	      0.65662986	    -26.97332860	     -5.20120690	     -7.49999987	     16.37043838	     -7.47875212	     -6.07122145	     38.17864974	      0.66634314	    -24.55017032	     -5.18326874	     -7.49999987	     -2.85066742	     -0.11546060	      2.09888482	    126.92748295	     -7.64385260	     24.62237378	     97.21098735	     96.76767855	    125.67239671	     -7.65533737	     28.51309734	    102.68018516	     92.74920212
      1.42916670	    -17.33465775	      0.75740243	     -1.29732387	     -0.51926170	      1.33539092	     -0.04090191	     17.45005423	     -9.44157872	     -8.10532081	     37.10026015	      0.64752169	    -26.78776861	     -6.43788582	     -7.49999987	     16.62206741	     -7.64457092	     -6.42806805	     38.53680889	      0.67259420	    -24.77179643	     -5.81103241	     -7.49999987	     -2.66550141	     -0.28406377	      2.40317740	    127.84278380	     -8.03047712	     25.33856059	     97.48394921	     96.83341540	    126.55232203	     -7.92608637	     28.85683095	    102.81353203	     92.89800063
      1.43333330	    -17.03898357	      0.88037381	     -1.12252685	     -0.51265206	      1.34282533	     -0.03899325	     16.87651490	     -9.40865949	     -8.36623905	     36.71121408	      0.64073156	    -26.13174007	     -7.53325686	     -7.49999987	     16.54243609	     -7.70979761	     -6.72121892	     38.89660527	      0.67887383	    -25.29253837	     -6.35584705	     -7.49999987	     -2.85633443	     -0.48863694	      2.33338398	    128.30636072	     -8.10621545	     25.60442056	     97.58858661	     96.83474715	    126.91532113	     -8.21935670	     29.08720078	    103.10305521	     92.98915855
      1.43750000	    -16.90592168	      0.92938363	     -1.58255636	     -0.50508503	      1.34424144	     -0.04027467	     16.74682838	     -9.45081402	     -8.30015355	     36.33469145	      0.63416000	    -26.45625458	     -8.66833244	     -7.49999987	     16.34929992	     -7.78074195	     -7.05657377	     39.02066690	      0.68103911	    -25.52344298	     -7.31843734	     -7.49999987	     -2.86090357	     -0.62940448	      2.42546335	    128.94132560	     -7.79449976	     25.33834312	     97.30279279	     96.85722175	    127.59960911	     -8.31387130	     29.36522298	    102.90624022	     93.09907622
      1.44166670	    -16.79394079	      0.94075936	     -1.58582835	     -0.50032780	      1.34822888	     -0.03900961	     16.97051160	     -9.39449472	     -7.53051366	     36.70142902	      0.64056078	    -26.31548813	     -9.41234804	     -7.49999987	     16.46875055	     -7.88721605	     -7.15034806	     39.51057258	      0.68958958	    -25.00265334	     -8.52042298	     -7.49999987	     -2.94733918	     -0.73190385	      2.02305646	    129.57634399	     -7.45960561	     25.24183632	     96.63899890	     96.91520206	    128.39158066	     -8.30051134	     29.70174384	    102.53216203	     93.19619930
      1.44583330	    -16.67494331	      1.05419787	     -1.73115565	     -0.49531332	      1.35277527	     -0.03712963	     17.25262656	     -9.35893262	     -7.28464353	     36.84714622	      0.64310402	    -26.46996807	    -10.98200225	     -7.49999987	     16.94753743	     -8.04474551	     -7.26129068	     40.05142121	      0.69902917	    -25.16324035	    -10.47675011	     -7.49999987	     -3.07802012	     -0.96373870	      1.92690759	    130.11428546	     -7.19935385	     25.18159526	     96.55043556	     96.97465456	    128.93040017	     -8.43892637	     29.94060844	    102.53437608	     93.28275696
      1.45000000	    -16.68989828	      1.01687025	     -1.46075218	     -0.48978384	      1.35726327	     -0.03497586	     17.70121055	     -9.21221186	     -6.99220787	     37.01097347	      0.64596335	    -27.68085405	    -11.93414277	     -7.49999987	     17.40304361	     -8.24588873	     -6.87188092	     40.22414662	      0.70204380	    -25.02967173	    -10.86455125	     -7.49999987	     -3.29618258	     -0.93703506	      1.66594404	    130.97208854	     -6.96359275	     25.33052249	     96.62124542	     97.07327970	    129.88566269	     -8.29698511	     29.97958034	    102.16121887	     93.36906354
      1.45416670	    -16.70696648	      1.14123812	     -1.46911536	     -0.48509846	      1.35825853	     -0.03586367	     17.91507216	     -9.26681107	     -6.49326776	     36.92516152	      0.64446565	    -27.70924178	    -12.40736207	     -7.49999987	     17.88129543	     -8.21510479	     -6.79698415	     40.89509660	      0.71375408	    -25.59432497	    -11.82442372	     -7.49999987	     -3.29476566	     -1.16820618	      1.59502398	    131.46677765	     -6.77697906	     25.12702908	     96.44726494	     97.13551799	    130.58774273	     -8.12722248	     29.97247787	    101.51906488	     93.40772299
      1.45833330	    -16.47420692	      1.23146247	     -1.92910730	     -0.47935208	      1.36695808	     -0.03502668	     18.15613358	     -9.32110278	     -6.23959975	     36.95558546	      0.64499664	    -28.69174414	    -13.17788618	     -7.49999987	     17.48314064	     -7.99848231	     -7.03958498	     40.70195074	      0.71038305	    -25.28413974	    -11.71911468	     -7.49999987	     -3.59553079	     -1.28648746	      1.69531705	    131.63150194	     -6.73020119	     25.48019696	     96.82968509	     97.19195919	    130.95035054	     -8.34736888	     30.26942085	    102.06869219	     93.45404184
      1.46250000	    -16.30508953	      1.26040027	     -2.15661729	     -0.47186640	      1.36845672	     -0.03422006	     18.17215688	     -9.33129766	     -5.86420657	     36.80963435	      0.64244932	    -28.98754080	    -13.83764744	     -7.49999987	     17.12466663	     -7.96055081	     -7.00869992	     40.33740133	      0.70402046	    -25.55212170	    -11.83290096	     -7.49999987	     -3.71057178	     -1.28308276	      1.75768499	    131.85611061	     -6.54453144	     25.97416869	     97.07630498	     97.27793774	    131.32931303	     -8.53318863	     30.49473399	    102.49080143	     93.51451668
      1.46666670	    -16.22879534	      1.40247857	     -1.91591988	     -0.46894209	      1.37186556	     -0.03313884	     18.04676992	     -9.48696112	     -5.44564710	     36.22554509	      0.63225504	    -28.87484582	    -13.88539231	     -7.49999987	     17.69560747	     -7.95144483	     -7.04677434	     40.40050759	      0.70512188	    -25.81898800	    -11.97199393	     -7.49999987	     -3.79626305	     -1.47474655	      1.78315955	    132.10530027	     -6.44277597	     25.95256277	     97.12061667	     97.29134951	    131.47705903	     -8.51352683	     30.47642944	    102.41872534	     93.52212723
      1.47083330	    -16.25614488	      1.59874170	     -1.78248598	     -0.46405532	      1.37387475	     -0.03022115	     18.12236970	     -9.48140918	     -4.72142749	     35.61153313	      0.62153850	    -29.58626804	    -14.05523549	     -7.49999987	     18.16135768	     -7.86568015	     -6.79366313	     41.03197792	      0.71614311	    -25.64085721	    -12.62267966	     -7.49999987	     -4.17265415	     -1.82115275	      1.92167495	    133.02836470	     -6.54549089	     25.85184299	     97.46282143	     97.37947496	    132.51716557	     -8.43201493	     30.58419649	    102.29248363	     93.57587202
